<svg xmlns="http://www.w3.org/2000/svg" width="96" height="96"><path d="M32 0h64v64.438a31 31 0 01-2.517 12.287 31.429 31.429 0 01-6.856 10.031A32.141 32.141 0 0164 96H0V31.562a31 31 0 012.517-12.287A31.429 31.429 0 019.373 9.244 32.141 32.141 0 0132 0z" fill="#fff"/><path d="M31.875 5H91v59.538A26.671 26.671 0 0164.125 91H5V31.462A26.671 26.671 0 0131.875 5z" fill="#fff"/><path d="M31.875 12A19.694 19.694 0 0012 31.462V84h52.125A19.694 19.694 0 0084 64.538V12H31.875m0-7H91v59.538A26.671 26.671 0 0164.125 91H5V31.462A26.671 26.671 0 0131.875 5z" fill="#333"/><path d="M46.087 35.272a3.479 3.479 0 01.048.55v2.241l-.286 21.942v.423a3.117 3.117 0 01-.143.761 2.8 2.8 0 01-.143.444q-.1.233-.19.486a1.685 1.685 0 01-.666.761 2.389 2.389 0 01-1.237.465 4.11 4.11 0 01-2.425-.211 1.909 1.909 0 01-.856-.846.986.986 0 01-.19-.254.6.6 0 00-.1-.254 2.107 2.107 0 01-.143-.444l-.1-.486a3.779 3.779 0 00-.024-.423 3.923 3.923 0 00-.071-.423.91.91 0 01-.1-.359v-.359a1.439 1.439 0 00.1-.634l.062-3.339.048-5.327h-2.573l-9.654.042-.1 9.978v.423a3.117 3.117 0 01-.143.761 2.8 2.8 0 01-.143.444q-.1.233-.19.486a1.685 1.685 0 01-.666.761 2.389 2.389 0 01-1.237.465 4.11 4.11 0 01-2.419-.213 2.758 2.758 0 01-.9-.846.6.6 0 01-.1-.254l-.143-.254a2.107 2.107 0 01-.143-.444l-.1-.486a1.921 1.921 0 00-.037-.421l-.1-.423a2.725 2.725 0 010-.719v-.634l.048-3.339.1-6.215q.048-1.353.048-2.79v-2.959q-.048-1.522-.024-2.706t.119-2.664v-.166a7.75 7.75 0 00.048-.867 8.935 8.935 0 01.048-.909 4.782 4.782 0 01.166-.824 4.013 4.013 0 01.357-.824 1.724 1.724 0 01.38-.571 3.484 3.484 0 01.571-.444 3.72 3.72 0 011.522-.338q.38 0 .666.021t.571.063a1.846 1.846 0 011.094.507 1.551 1.551 0 01.523.676 3.49 3.49 0 01.285.972 3.479 3.479 0 01.048.55v2.24l-.1 6.976h.88q.5 0 1.165-.042 2.473 0 4.922.042t5.163.039h.048q0-1.9.024-3.636t.119-3.636q0-.423.024-.867t.071-.909a4.781 4.781 0 01.166-.824 4.013 4.013 0 01.357-.824 1.173 1.173 0 01.357-.571 3.584 3.584 0 01.642-.444 3.208 3.208 0 011.474-.338q.38 0 .69.021a5.172 5.172 0 01.547.063 1.836 1.836 0 011.094.507 1.107 1.107 0 01.523.676q.1.254.166.486t.162.488zM74.574 50.83a6.216 6.216 0 01.357 1.332 9.444 9.444 0 01.119 1.5 9.444 9.444 0 01-.119 1.5 7.715 7.715 0 01-.308 1.291 7.6 7.6 0 01-3.044 3.953 15.532 15.532 0 01-5.208 2.3 19.6 19.6 0 01-6.04.507 14.8 14.8 0 01-5.54-1.4 9.9 9.9 0 01-2.616-1.86 11.345 11.345 0 01-1.852-2.44 2.611 2.611 0 01-.357-1.078 2.709 2.709 0 01.116-1.187 2.657 2.657 0 01.618-1.015 2.3 2.3 0 011.189-.613 6.146 6.146 0 011.07-.085 4.623 4.623 0 011.164.149 3.417 3.417 0 011.046.465 2.28 2.28 0 01.762.864 5.7 5.7 0 001.5 1.628 9.676 9.676 0 002.069 1.2 9.317 9.317 0 003.163.381 8.613 8.613 0 002.9-.634 5.531 5.531 0 002.116-1.5 3.267 3.267 0 00.808-2.175 3.679 3.679 0 00-.333-1.67 3.118 3.118 0 00-.927-1.1 5.382 5.382 0 00-1.427-.74 14.329 14.329 0 00-1.831-.507 21 21 0 00-2.307-.3q-1.165-.085-2.354-.211t-2.33-.338a12.5 12.5 0 01-2.235-.634 6.721 6.721 0 01-3.33-2.445 7.669 7.669 0 01-1.355-3.555 8.012 8.012 0 01.5-3.784 7.929 7.929 0 012.283-3.234 9.3 9.3 0 013.638-1.755 22.4 22.4 0 014.684-.613 24.631 24.631 0 012.877.085 22.214 22.214 0 012.806.423 16 16 0 012.521.761 8.956 8.956 0 012.021 1.1 6.841 6.841 0 011.235 1.123 5.447 5.447 0 01.951 1.48 2.672 2.672 0 01.214 1.5 1.8 1.8 0 01-1.023 1.226 2.5 2.5 0 01-1.451.359 3.553 3.553 0 01-1.308-.381 8.55 8.55 0 01-1.189-.74q-.571-.423-1.046-.761a7.955 7.955 0 00-3.186-1.142 14 14 0 00-3.567-.127 10.2 10.2 0 00-1.95.423 4.954 4.954 0 00-1.546.8 3.514 3.514 0 00-1 1.247 3.059 3.059 0 00-.262 1.67 1.89 1.89 0 00.452 1.142 3.186 3.186 0 001 .761 6.062 6.062 0 001.308.465 12.622 12.622 0 001.427.254q2.14.254 4.28.381a15.292 15.292 0 014.185.846 11.209 11.209 0 013.567 1.945 6.746 6.746 0 012.095 2.963z" fill="#333"/></svg>